HIERARCHY
ROOT Hips
{
	OFFSET 0.000000 100.481300 0.000000
	CHANNELS 6 Xposition Yposition Zposition Xrotation Yrotation Zrotation
	JOINT Spine
	{
		OFFSET -0.279200 12.230698 -2.892100
		CHANNELS 3 Xrotation Yrotation Zrotation
		JOINT Spine1
		{
			OFFSET -0.325700 14.269203 -3.374200
			CHANNELS 3 Xrotation Yrotation Zrotation
			JOINT Spine2
			{
				OFFSET -0.372300 16.307602 -0.352600
				CHANNELS 3 Xrotation Yrotation Zrotation
				JOINT Neck
				{
					OFFSET -0.418800 17.814194 8.416900
					CHANNELS 3 Xrotation Yrotation Zrotation
					JOINT Head
					{
						OFFSET 0.000000 7.031097 3.806800
						CHANNELS 3 Xrotation Yrotation Zrotation
						JOINT HeadTop_End
						{
							OFFSET 0.000000 24.646606 12.978600
							CHANNELS 3 Xrotation Yrotation Zrotation
							End Site
							{
								OFFSET 0.000000 27.854965 0.000000
							}
						}
					}
				}
				JOINT LeftShoulder
				{
					OFFSET 16.952999 14.495407 -7.737500
					CHANNELS 3 Xrotation Yrotation Zrotation
					JOINT LeftArm
					{
						OFFSET 9.308998 -2.777710 0.208600
						CHANNELS 3 Xrotation Yrotation Zrotation
						JOINT LeftForeArm
						{
							OFFSET 29.972298 0.000000 0.000000
							CHANNELS 3 Xrotation Yrotation Zrotation
							JOINT LeftHand
							{
								OFFSET 26.026505 0.000000 0.000000
								CHANNELS 3 Xrotation Yrotation Zrotation
								JOINT LeftHandThumb1
								{
									OFFSET 12.240501 -7.147949 9.207150
									CHANNELS 3 Xrotation Yrotation Zrotation
									JOINT LeftHandThumb2
									{
										OFFSET 4.138618 -2.389435 2.389433
										CHANNELS 3 Xrotation Yrotation Zrotation
										JOINT LeftHandThumb3
										{
											OFFSET 2.726913 -1.574387 1.574386
											CHANNELS 3 Xrotation Yrotation Zrotation
											JOINT LeftHandThumb4
											{
												OFFSET 3.941010 -2.275345 2.275342
												CHANNELS 3 Xrotation Yrotation Zrotation
												End Site
												{
													OFFSET -0.005798 5.087799 0.009903
												}
											}
										}
									}
								}
								JOINT LeftHandIndex1
								{
									OFFSET 24.424698 -1.985611 5.953459
									CHANNELS 3 Xrotation Yrotation Zrotation
									JOINT LeftHandIndex2
									{
										OFFSET 6.426697 0.000000 0.000000
										CHANNELS 3 Xrotation Yrotation Zrotation
										JOINT LeftHandIndex3
										{
											OFFSET 5.337898 0.000000 0.000000
											CHANNELS 3 Xrotation Yrotation Zrotation
											JOINT LeftHandIndex4
											{
												OFFSET 4.409401 0.000000 0.000000
												CHANNELS 3 Xrotation Yrotation Zrotation
												End Site
												{
													OFFSET 0.000000 4.409363 0.014373
												}
											}
										}
									}
								}
								JOINT LeftHandMiddle1
								{
									OFFSET 23.810104 0.000000 0.000000
									CHANNELS 3 Xrotation Yrotation Zrotation
									JOINT LeftHandMiddle2
									{
										OFFSET 7.176498 0.000000 0.000000
										CHANNELS 3 Xrotation Yrotation Zrotation
										JOINT LeftHandMiddle3
										{
											OFFSET 6.774902 0.000000 0.000000
											CHANNELS 3 Xrotation Yrotation Zrotation
											JOINT LeftHandMiddle4
											{
												OFFSET 5.403328 0.000000 0.000000
												CHANNELS 3 Xrotation Yrotation Zrotation
												End Site
												{
													OFFSET -0.027702 5.403244 0.017414
												}
											}
										}
									}
								}
								JOINT LeftHandRing1
								{
									OFFSET 22.908401 -0.839279 -6.020567
									CHANNELS 3 Xrotation Yrotation Zrotation
									JOINT LeftHandRing2
									{
										OFFSET 6.337502 0.000000 0.000000
										CHANNELS 3 Xrotation Yrotation Zrotation
										JOINT LeftHandRing3
										{
											OFFSET 5.779297 0.000000 0.000000
											CHANNELS 3 Xrotation Yrotation Zrotation
											JOINT LeftHandRing4
											{
												OFFSET 4.965698 0.000000 0.000000
												CHANNELS 3 Xrotation Yrotation Zrotation
												End Site
												{
													OFFSET 0.000000 4.965668 0.016186
												}
											}
										}
									}
								}
								JOINT LeftHandPinky1
								{
									OFFSET 20.037003 -1.530319 -10.950146
									CHANNELS 3 Xrotation Yrotation Zrotation
									JOINT LeftHandPinky2
									{
										OFFSET 5.254700 0.000000 0.000000
										CHANNELS 3 Xrotation Yrotation Zrotation
										JOINT LeftHandPinky3
										{
											OFFSET 4.810204 0.000000 0.000000
											CHANNELS 3 Xrotation Yrotation Zrotation
											JOINT LeftHandPinky4
											{
												OFFSET 3.647202 0.000000 0.000000
												CHANNELS 3 Xrotation Yrotation Zrotation
												End Site
												{
													OFFSET 0.000000 3.647186 0.011889
												}
											}
										}
									}
								}
							}
						}
					}
				}
				JOINT RightShoulder
				{
					OFFSET -15.141001 14.495407 -7.737500
					CHANNELS 3 Xrotation Yrotation Zrotation
					JOINT RightArm
					{
						OFFSET -9.308998 -2.777710 0.208500
						CHANNELS 3 Xrotation Yrotation Zrotation
						JOINT RightForeArm
						{
							OFFSET -29.972300 0.000000 0.000000
							CHANNELS 3 Xrotation Yrotation Zrotation
							JOINT RightHand
							{
								OFFSET -26.026505 0.000000 0.000000
								CHANNELS 3 Xrotation Yrotation Zrotation
								JOINT RightHandThumb1
								{
									OFFSET -12.240601 -7.148026 9.207092
									CHANNELS 3 Xrotation Yrotation Zrotation
									JOINT RightHandThumb2
									{
										OFFSET -4.138618 -2.389435 2.389433
										CHANNELS 3 Xrotation Yrotation Zrotation
										JOINT RightHandThumb3
										{
											OFFSET -2.726974 -1.574417 1.574421
											CHANNELS 3 Xrotation Yrotation Zrotation
											JOINT RightHandThumb4
											{
												OFFSET -3.941010 -2.275345 2.275343
												CHANNELS 3 Xrotation Yrotation Zrotation
												End Site
												{
													OFFSET 0.005814 5.087799 0.009927
												}
											}
										}
									}
								}
								JOINT RightHandIndex1
								{
									OFFSET -24.424698 -1.985657 5.953444
									CHANNELS 3 Xrotation Yrotation Zrotation
									JOINT RightHandIndex2
									{
										OFFSET -6.426697 0.000000 0.000000
										CHANNELS 3 Xrotation Yrotation Zrotation
										JOINT RightHandIndex3
										{
											OFFSET -5.337898 0.000000 0.000000
											CHANNELS 3 Xrotation Yrotation Zrotation
											JOINT RightHandIndex4
											{
												OFFSET -4.409401 0.000000 0.000000
												CHANNELS 3 Xrotation Yrotation Zrotation
												End Site
												{
													OFFSET 0.000000 4.409363 0.014408
												}
											}
										}
									}
								}
								JOINT RightHandMiddle1
								{
									OFFSET -23.810097 0.000000 0.000000
									CHANNELS 3 Xrotation Yrotation Zrotation
									JOINT RightHandMiddle2
									{
										OFFSET -7.176498 0.000000 0.000000
										CHANNELS 3 Xrotation Yrotation Zrotation
										JOINT RightHandMiddle3
										{
											OFFSET -6.774902 0.000000 0.000000
											CHANNELS 3 Xrotation Yrotation Zrotation
											JOINT RightHandMiddle4
											{
												OFFSET -5.403328 0.000000 0.000000
												CHANNELS 3 Xrotation Yrotation Zrotation
												End Site
												{
													OFFSET 0.027702 5.403244 0.017457
												}
											}
										}
									}
								}
								JOINT RightHandRing1
								{
									OFFSET -22.908302 -0.839325 -6.020576
									CHANNELS 3 Xrotation Yrotation Zrotation
									JOINT RightHandRing2
									{
										OFFSET -6.337502 0.000000 0.000000
										CHANNELS 3 Xrotation Yrotation Zrotation
										JOINT RightHandRing3
										{
											OFFSET -5.779297 0.000000 0.000000
											CHANNELS 3 Xrotation Yrotation Zrotation
											JOINT RightHandRing4
											{
												OFFSET -4.965698 0.000000 0.000000
												CHANNELS 3 Xrotation Yrotation Zrotation
												End Site
												{
													OFFSET 0.000000 4.965668 0.016226
												}
											}
										}
									}
								}
								JOINT RightHandPinky1
								{
									OFFSET -20.037003 -1.530334 -10.950259
									CHANNELS 3 Xrotation Yrotation Zrotation
									JOINT RightHandPinky2
									{
										OFFSET -5.254700 0.000000 0.000000
										CHANNELS 3 Xrotation Yrotation Zrotation
										JOINT RightHandPinky3
										{
											OFFSET -4.810204 0.000000 0.000000
											CHANNELS 3 Xrotation Yrotation Zrotation
											JOINT RightHandPinky4
											{
												OFFSET -3.647202 0.000000 0.000000
												CHANNELS 3 Xrotation Yrotation Zrotation
												End Site
												{
													OFFSET 0.000000 3.647186 0.011917
												}
											}
										}
									}
								}
							}
						}
					}
				}
			}
		}
	}
	JOINT LeftUpLeg
	{
		OFFSET 15.427100 -6.655098 0.678600
		CHANNELS 3 Xrotation Yrotation Zrotation
		JOINT LeftLeg
		{
			OFFSET 4.081073 -39.591068 13.024000
			CHANNELS 3 Xrotation Yrotation Zrotation
			JOINT LeftFoot
			{
				OFFSET -4.081074 -37.707932 -15.979700
				CHANNELS 3 Xrotation Yrotation Zrotation
				JOINT LeftToeBase
				{
					OFFSET 5.346399 -15.068900 20.645000
					CHANNELS 3 Xrotation Yrotation Zrotation
					JOINT LeftToe_End
					{
						OFFSET 2.754700 0.931300 11.300900
						CHANNELS 3 Xrotation Yrotation Zrotation
						End Site
						{
							OFFSET 0.000000 11.669021 0.000000
						}
					}
				}
			}
		}
	}
	JOINT RightUpLeg
	{
		OFFSET -15.569500 -6.655098 0.678600
		CHANNELS 3 Xrotation Yrotation Zrotation
		JOINT RightLeg
		{
			OFFSET -4.081825 -39.591045 13.023800
			CHANNELS 3 Xrotation Yrotation Zrotation
			JOINT RightFoot
			{
				OFFSET 4.081824 -37.707954 -15.979600
				CHANNELS 3 Xrotation Yrotation Zrotation
				JOINT RightToeBase
				{
					OFFSET -5.346400 -15.068900 20.645000
					CHANNELS 3 Xrotation Yrotation Zrotation
					JOINT RightToe_End
					{
						OFFSET -2.754700 0.931300 11.300900
						CHANNELS 3 Xrotation Yrotation Zrotation
						End Site
						{
							OFFSET 0.000000 11.669021 0.000000
						}
					}
				}
			}
		}
	}
}
MOTION
Frames: 6
Frame Time: 0.033333
2.019946 82.047493 1.368155 18.845977 4.516539 -2.549761 13.837369 3.108332 7.811063 10.334294 0.781577 3.756310 10.335495 0.701630 3.775684 -9.684454 -0.041523 -0.747607 -28.285350 0.963975 -6.915896 -0.000001 0.000000 0.000000 0.645078 -4.965824 -5.400733 14.062927 -1.858788 -65.091716 -0.000008 -63.544795 -0.000013 -15.642619 -2.074960 -5.562179 -8.659336 -14.273104 1.415463 8.310003 30.313728 2.780899 -4.003641 35.146323 21.638061 0.000001 0.000004 -0.000003 -1.487730 -17.553101 -24.905038 1.986665 4.396661 -48.615511 1.986661 4.396665 -48.615494 -0.000000 0.000002 0.000001 0.536012 4.663232 -23.125912 1.322684 3.709099 -39.241995 0.491010 2.349648 -23.603493 -0.000000 0.000001 -0.000000 1.762536 6.478466 -44.719335 3.225882 5.230923 -63.301729 3.410367 5.319299 -65.308288 0.000001 -0.000000 0.000001 3.849213 22.646401 -60.257029 4.925559 5.777662 -80.883223 4.925549 5.777654 -80.883216 -0.000001 0.000002 0.000001 1.177559 14.559532 3.668860 -14.673075 17.640350 21.405808 -0.000020 65.299785 0.000019 5.931793 16.406463 -2.549325 -0.536584 10.477058 -0.451612 8.285398 -30.977223 -3.295430 -3.172865 -55.131494 -25.525141 0.000001 0.000001 0.000000 7.871108 0.190582 -0.022431 4.160664 -4.630680 83.873350 0.344181 -1.758726 22.143391 0.000002 0.000000 -0.000002 0.419112 -4.103631 22.994780 4.160680 -4.630674 83.873343 2.666283 -4.211036 64.667302 0.000001 0.000000 0.000001 -0.432679 -3.654474 43.813048 4.553813 -4.656024 88.726930 4.528661 -4.655396 88.417086 0.000000 -0.000003 0.000000 -8.596424 -15.030301 43.211622 4.530286 -4.655451 88.436982 4.530282 -4.655429 88.436968 0.000000 0.000003 0.000001 -51.769279 5.349627 19.876644 54.645779 8.035876 -3.235478 -10.130858 23.646689 -0.278823 -2.913920 -0.000004 -0.000003 0.000000 0.000002 0.000001 -47.786476 -12.550362 -0.763994 47.577192 -0.540364 -5.040372 -18.934790 -6.742089 0.509007 -5.768397 0.000006 -0.000000 -0.000000 0.000000 -0.000000 
2.483734 84.948883 6.314674 16.653021 6.647273 -2.133868 12.080135 3.434284 6.700600 9.198611 1.112840 3.266941 9.200483 1.051006 3.286704 -8.689877 -0.623182 -0.788874 -23.085865 -2.505221 -3.836033 -0.000001 0.000000 -0.000000 0.674119 -4.974601 -2.569534 23.801307 -6.165138 -59.559523 0.000016 -67.446356 -0.000002 -15.463413 -2.017500 -8.707134 -8.659338 -14.273105 1.415444 8.310003 30.313728 2.780899 -4.003644 35.146323 21.638060 0.000001 -0.000001 0.000002 -2.485529 -14.996037 -28.296179 2.131345 4.519659 -50.476652 1.986663 4.396664 -48.615514 0.000001 0.000002 -0.000000 0.349671 4.275035 -25.129781 1.527582 3.946140 -42.310607 0.491009 2.349656 -23.603489 -0.000000 -0.000003 -0.000001 1.762538 6.478463 -44.719339 3.316855 5.275496 -64.295378 3.410361 5.319305 -65.308274 0.000002 -0.000001 0.000001 3.849218 22.646387 -60.257042 4.836415 5.762722 -79.996569 4.925546 5.777650 -80.883216 0.000002 0.000001 -0.000003 1.269970 13.187625 2.031529 -5.918488 14.494968 19.394682 -0.000059 66.227638 0.000050 8.558072 17.067442 -7.826191 -0.190031 9.576163 1.730133 8.285400 -30.977227 -3.295434 -3.172860 -55.131480 -25.525132 -0.000000 0.000001 0.000000 6.964586 0.682049 14.356376 4.872566 -4.652199 92.653879 0.366573 -1.812754 22.861922 0.000000 0.000000 -0.000001 0.823101 -4.853430 33.489186 4.533720 -4.655522 88.479377 2.666289 -4.211028 64.667329 -0.000000 -0.000002 -0.000003 0.219530 -4.646953 51.088528 4.553834 -4.656016 88.726944 4.528674 -4.655392 88.417093 0.000000 0.000000 0.000000 -6.317151 -16.030311 47.533066 4.530283 -4.655441 88.437003 4.530278 -4.655436 88.436968 0.000000 -0.000002 -0.000000 -50.017660 8.373376 19.806044 45.483302 7.392364 -2.982859 -2.880120 19.954924 -6.403169 -2.056879 -0.000024 -0.000003 -0.000000 -0.000003 -0.000000 -37.579865 -13.656539 -1.235466 42.270463 -0.926404 -5.024485 -21.626339 -6.643449 1.454214 -6.204384 0.000004 -0.000002 0.000000 -0.000001 -0.000000 
2.750503 88.035721 11.952596 13.778360 9.288542 -1.462002 9.911792 3.437721 5.785945 7.647045 1.397688 2.502100 7.648349 1.369061 2.515115 -6.286996 -1.562362 -0.767298 -17.310119 -5.789267 -0.391347 -0.000001 0.000000 -0.000000 1.033859 -5.009132 1.815100 34.244448 -5.654409 -51.879532 -0.000000 -75.161287 -0.000026 -12.290309 -1.721322 -11.492971 -8.659339 -14.273105 1.415433 8.310006 30.313728 2.780898 -4.003642 35.146313 21.638055 0.000002 -0.000001 0.000000 -3.648345 -9.044969 -35.136856 2.492041 4.793557 -54.917275 1.986667 4.396665 -48.615517 0.000003 0.000000 -0.000006 -0.225910 3.418359 -29.903111 2.093097 4.487932 -49.989571 0.491010 2.349660 -23.603493 -0.000000 0.000002 0.000000 1.762535 6.478463 -44.719352 3.554964 5.383157 -66.858577 3.410367 5.319309 -65.308268 -0.000003 -0.000000 0.000000 3.849230 22.646387 -60.257049 4.602635 5.716777 -77.659285 4.925548 5.777653 -80.883223 -0.000001 -0.000003 -0.000000 1.258356 11.759392 0.744601 2.985147 11.057715 18.578922 -0.000044 68.453310 0.000038 10.800745 15.480608 -13.057476 0.258043 8.510153 4.213511 8.285401 -30.977223 -3.295426 -3.172832 -55.131480 -25.525115 -0.000002 0.000001 -0.000001 5.379122 0.560373 30.716566 5.681404 -4.543375 102.718218 0.393037 -1.874277 23.685025 0.000001 -0.000000 -0.000000 1.446238 -5.605822 45.540112 4.961884 -4.647198 93.755493 2.666305 -4.211022 64.667329 -0.000001 -0.000001 -0.000001 1.209249 -5.624703 59.448969 4.553817 -4.656033 88.726937 4.528665 -4.655393 88.417093 0.000001 0.000002 -0.000001 -3.550381 -16.799470 52.589492 4.530285 -4.655458 88.437003 4.530275 -4.655426 88.436996 0.000001 0.000001 0.000000 -44.803538 12.264183 17.267198 36.368223 6.541476 -2.683241 3.068417 18.964430 -7.816999 -2.300326 0.000020 -0.000001 0.000000 -0.000000 -0.000000 -25.580619 -14.946179 -1.853299 34.977348 -0.633185 -4.917650 -23.272224 -7.438266 2.773840 -7.760539 0.000001 0.000001 0.000001 -0.000000 -0.000000 
3.185527 90.267509 17.711126 10.752172 11.920981 -0.188862 7.789152 3.132815 4.835418 6.132033 1.482575 1.556669 6.141252 1.434141 1.566768 -3.357668 -2.502094 -0.646337 -11.215834 -8.990806 2.391300 0.000002 0.000000 0.000001 1.397330 -5.066886 6.112926 40.947916 -1.348999 -45.725439 -0.000392 -84.730880 -0.000311 -9.261749 -0.918472 -11.902835 -8.659332 -14.273111 1.415447 8.309997 30.313725 2.780897 -4.003644 35.146323 21.638060 0.000002 0.000001 -0.000000 -3.475447 -2.868545 -41.313202 2.948984 5.082798 -60.221798 1.986671 4.396673 -48.615517 -0.000002 0.000001 -0.000001 -1.138835 2.549950 -35.592724 2.928281 5.070953 -59.987905 0.491007 2.349651 -23.603486 0.000000 0.000001 -0.000002 1.762541 6.478469 -44.719339 3.887962 5.512996 -70.364732 3.410373 5.319293 -65.308295 0.000001 -0.000000 0.000000 3.849227 22.646401 -60.257035 4.275773 5.635725 -74.355557 4.925553 5.777645 -80.883216 -0.000000 -0.000002 -0.000000 1.236063 10.286124 -0.271900 11.575542 8.713061 20.023318 -0.000019 71.873404 0.000016 10.539290 16.274456 -16.529889 0.772310 7.391692 6.723321 8.285399 -30.977223 -3.295426 -3.172824 -55.131487 -25.525103 -0.000001 -0.000001 0.000001 3.660874 -0.430033 46.039129 6.458536 -4.295387 112.777597 0.421298 -1.937365 24.534313 -0.000002 -0.000001 0.000000 2.214371 -6.211912 57.613281 5.400861 -4.597539 99.198690 2.666289 -4.211034 64.667323 -0.000002 0.000000 0.000000 2.468430 -6.396916 68.105237 4.553822 -4.656042 88.726930 4.528666 -4.655397 88.417072 0.000001 -0.000002 -0.000000 -0.545277 -17.153755 57.947031 4.530294 -4.655459 88.436989 4.530275 -4.655424 88.436996 0.000000 0.000001 0.000001 -35.953969 15.075677 14.599453 30.398532 2.787596 -2.298919 3.902957 21.322648 -9.369436 -5.408152 -0.000116 0.002236 0.000000 -0.000000 0.000000 -18.456474 -16.254527 -3.150053 34.015954 0.035965 -5.039804 -19.965377 -8.080955 4.477831 -12.340765 -0.000001 -0.000000 -0.000001 -0.000000 -0.000000 
3.714032 91.973389 22.886127 8.609249 13.750617 0.062391 6.545271 2.386032 3.824615 5.166830 1.351512 1.093432 5.178897 1.305307 1.074574 -0.788372 -3.122196 -0.397082 -5.332562 -11.223190 4.721387 -0.000001 -0.000000 0.000000 1.340083 -5.168710 8.291387 41.156589 2.558724 -39.202861 -0.000493 -92.022585 -0.000417 -12.157273 -0.877759 -6.727268 -8.659322 -14.273092 1.415489 8.310003 30.313728 2.780896 -4.003643 35.146320 21.638060 -0.000002 0.000000 -0.000001 -2.980646 -0.051779 -43.962629 3.351306 5.291864 -64.669515 1.986673 4.396673 -48.615517 -0.000001 0.000001 0.000001 -2.073936 1.977011 -40.353389 3.853130 5.500497 -70.001823 0.491008 2.349652 -23.603486 0.000001 -0.000003 0.000001 1.762548 6.478463 -44.719328 4.259177 5.631076 -74.186509 3.410377 5.319307 -65.308295 0.000002 -0.000000 0.000001 3.849225 22.646402 -60.257029 3.907656 5.519943 -70.569631 4.925546 5.777649 -80.883203 -0.000001 -0.000002 -0.000001 1.102280 8.813700 -0.578582 18.101374 6.709527 22.054056 -0.000120 74.368254 0.000113 -0.119978 20.963078 -16.992642 1.293264 6.347677 8.992630 8.285399 -30.977223 -3.295432 -3.172832 -55.131477 -25.525119 -0.000000 0.000000 -0.000000 2.459737 -1.771725 57.350175 7.091769 -3.971307 121.546181 0.448645 -1.996182 25.331387 -0.000001 0.000001 -0.000002 2.976724 -6.599801 68.161210 5.806763 -4.513365 104.305936 2.666294 -4.211040 64.667336 0.000000 0.000000 0.000000 3.824488 -6.853220 76.250811 4.553818 -4.656025 88.726937 4.528654 -4.655414 88.417099 -0.000001 -0.000000 -0.000001 2.391379 -17.050959 63.128180 4.530299 -4.655445 88.436982 4.530263 -4.655430 88.436982 -0.000000 -0.000001 -0.000001 -28.686371 17.139567 14.614984 26.995986 2.635674 -2.395076 2.586196 19.532977 -10.305145 -5.576814 -0.000174 0.004854 0.000000 -0.000002 -0.000000 -15.059264 -16.996458 -3.720987 35.417372 -0.913330 -5.051452 -13.282636 -6.169350 6.809487 -15.981396 0.018203 -0.219221 -0.000000 0.000000 -0.000000 
4.375231 93.212219 27.623138 7.999515 14.828827 -0.900982 5.912915 1.131727 3.246564 4.678536 0.486001 1.155421 4.680996 0.415270 1.187515 -0.624569 -2.729773 0.088525 -3.111028 -11.274592 5.256824 -0.000001 -0.000000 -0.000000 1.127801 -5.292510 9.322260 33.171545 4.715558 -30.751158 -0.000542 -91.682223 -0.000577 -15.921765 -3.228607 1.463787 -8.659329 -14.273100 1.415452 8.310009 30.313725 2.780897 -4.003644 35.146320 21.638060 -0.000002 0.000000 -0.000000 -3.017038 -0.152673 -43.508814 3.524700 5.370173 -66.535523 1.986678 4.396670 -48.615517 0.000000 -0.000002 0.000001 -2.507486 1.783896 -42.347665 4.607975 5.717940 -77.713011 0.491009 2.349651 -23.603488 0.000001 0.000002 -0.000000 1.762539 6.478446 -44.719352 4.606216 5.717565 -77.695376 3.410383 5.319303 -65.308288 0.000001 0.000000 0.000001 3.849221 22.646387 -60.257042 3.548109 5.380235 -66.785330 4.925552 5.777643 -80.883223 -0.000003 -0.000001 -0.000000 0.901256 7.464569 -0.209788 22.641157 4.939319 24.256283 0.000059 74.173819 -0.000068 -14.141698 25.251440 -12.434510 1.737585 5.514573 10.760591 8.285401 -30.977227 -3.295430 -3.172856 -55.131487 -25.525120 -0.000001 -0.000001 0.000002 2.045371 -2.436704 61.760176 7.506018 -3.685725 127.743676 0.472156 -2.045048 25.997840 -0.000000 0.000001 -0.000000 3.553276 -6.787039 75.628929 6.139220 -4.415564 108.574866 2.666293 -4.211036 64.667316 -0.000001 -0.000004 0.000000 5.047611 -7.006877 83.068658 4.553814 -4.656020 88.726951 4.528670 -4.655384 88.417099 -0.000001 -0.000003 -0.000002 4.949106 -16.601987 67.651808 4.530289 -4.655441 88.436982 4.530263 -4.655422 88.436975 0.000000 0.000003 -0.000001 -24.541471 18.828340 15.986309 24.682681 0.829136 -2.688448 1.836688 19.561730 -11.351886 -6.211259 -0.000291 0.005197 0.000000 -0.000000 0.000000 -15.519221 -17.063271 -3.181078 34.145673 -2.026279 -4.985703 -9.376220 -3.023819 6.699727 -17.604997 0.036207 -0.289994 -0.000000 -0.000000 -0.000000 
